# xmcd
#
# Track frame offsets: 
#        182
#        13657
#        31025
#        43745
#        56727
#        71225
#        99857
#        110705
#        126900
#        139537
#
# Disc length: 2062 seconds
#
# Revision: 2
# Processed by: cddbd v1.5.2PL0 Copyright (c) Steve Scherf et al.
# Submitted via: ExactAudioCopy v0.99pb5
#
DISCID=88080c0a
DTITLE=Bobby Womack - Facts Of Life
DYEAR=1994
DGENRE=R&B
TTITLE0=Nobody Wants You When You're Down And Out
TTITLE1=I'm Through Trying To Prove My Love To You
TTITLE2=If You Can't Give Her Love Give Her Up
TTITLE3=That's Heaven To Me
TTITLE4=Medley: Holdin' To My Baby's Love/Nobody
TTITLE5=Medley: Fact Of Life/He'll Be There When The Sun Goes Down
TTITLE6=Can't Stop A Man In Love
TTITLE7=The Look Of Love
TTITLE8=Natural Man
TTITLE9=All Along The Watchtower
EXTD=Record Label:\tThe Right Stuff/United Artists\nCatalog Number:\t7
EXTD=243-8-29142-2-4\nRecording Dates:\t?\nOriginal Release:\t1973\nCD
EXTD=Reissue:\t1994\n\nBobby Womack:\tVocals, Guitar, Horn and String A
EXTD=rrangements\nClayton Ivey:\tKeyboards\nDavid Hood:\tBass\nPete Ca
EXTD=rr:\tGuitar\nBarry Beckett:\tPiano, Keyboards\nRoger Hawkins:\tDr
EXTD=ums\nJerry Masters:\tBass ("Look of Love"]\nJimmy Johnson:\tGuita
EXTD=r\nDavid Turner:\tGuitar\nRene Hall:\tString Arrangements
EXTT0=
EXTT1=
EXTT2=
EXTT3=
EXTT4=
EXTT5=
EXTT6=
EXTT7=
EXTT8=
EXTT9=
PLAYORDER=
